# xmcd
#
# Track frame offsets: 
#        150
#        19128
#        36077
#        54931
#        73159
#        89756
#        106552
#        127920
#        142581
#        161634
#        178509
#
# Disc length: 2617 seconds
#
# Revision: 0
# Processed by: cddbd v1.5.2PL0 Copyright (c) Steve Scherf et al.
# Submitted via: ExactAudioCopy v1.3
#
DISCID=860a370b
DTITLE=Bobby Rush - Sitting on Top of the Blues
DYEAR=2019
DGENRE=Blues
TTITLE0=Hey Hey Bobby Rush
TTITLE1=Good Stuff
TTITLE2=Get Out of Here (Dog Named Bo)
TTITLE3=You Got the Goods on You
TTITLE4=Sweet Lizzy
TTITLE5=Bobby Rush Shuffle
TTITLE6=Recipe for Love
TTITLE7=Pooky Poo
TTITLE8=Slow Motion
TTITLE9=Shake Til' You Get Enough
TTITLE10=Bowlegged Woman
EXTD=
EXTT0=
EXTT1=
EXTT2=
EXTT3=
EXTT4=
EXTT5=
EXTT6=
EXTT7=
EXTT8=
EXTT9=
EXTT10=
PLAYORDER=
